# xmcd CD database file
# Copyright (C) 1995-1998 Ti Kan
#
# Track frame offsets:
#	150
#	17660
#	31660
#	47288
#	60744
#	79295
#	96849
#	121593
#	140997
#	161413
#	183895
#	199029
#	223053
#	239522
#	257059
#
# Disc length: 3661 seconds
#
# Revision: 1
# Processed by: cddbd v1.4PL0 Copyright (c) Steve Scherf et al.
# Submitted via: CDex 1.30Release
#
DISCID=c70e4b0f
DTITLE=Keeley and Gross - Love and Carnage
DYEAR=2001
DGENRE=Country
TTITLE0=Cherry Beach
TTITLE1=Give the Dog a Bone
TTITLE2=No Business
TTITLE3=If Heaven had a Backdoor
TTITLE4=Secret in You Eyes
TTITLE5=Family Matters
TTITLE6=Other Side of Life
TTITLE7=Jerusalem
TTITLE8=Gone with the Wind
TTITLE9=Crime of the Mind
TTITLE10=Kickin' His Shadow
TTITLE11=Paris
TTITLE12=Blame it All on Nashville
TTITLE13=Clouds
TTITLE14=Holy Love
EXTD=YEAR: 2001 ID3G:   2
EXTT0=
EXTT1=
EXTT2=
EXTT3=
EXTT4=
EXTT5=
EXTT6=
EXTT7=
EXTT8=
EXTT9=
EXTT10=
EXTT11=
EXTT12=
EXTT13=
EXTT14=
PLAYORDER=
